<svg width="30" height="25" viewBox="0 0 30 25" fill="none" xmlns="http://www.w3.org/2000/svg">
<path id="Vector" d="M13.3005 24.3338C12.8986 24.7604 12.3537 25 11.7854 25C11.2172 25 10.6723 24.7604 10.2704 24.3338L0.62741 14.0949C0.22568 13.6682 8.66108e-07 13.0896 8.13363e-07 12.4863C7.60618e-07 11.8829 0.22568 11.3043 0.62741 10.8776L10.2704 0.63871C10.6746 0.224243 11.2159 -0.00509479 11.7777 8.93311e-05C12.3396 0.00527346 12.877 0.244566 13.2744 0.666427C13.6717 1.08829 13.897 1.65897 13.9019 2.25555C13.9068 2.85212 13.6908 3.42687 13.3005 3.856L7.49966 10.211L27.8571 10.211C28.4254 10.211 28.9705 10.4507 29.3724 10.8774C29.7742 11.3041 30 11.8828 30 12.4863C30 13.0897 29.7742 13.6684 29.3724 14.0952C28.9705 14.5219 28.4254 14.7616 27.8571 14.7616L7.49966 14.7616L13.3005 21.1165C13.7022 21.5432 13.9279 22.1218 13.9279 22.7252C13.9279 23.3285 13.7022 23.9071 13.3005 24.3338Z" fill="#552C2D"/>
</svg>
