<svg width="120" height="150" viewBox="0 0 192 224" fill="none" xmlns="http://www.w3.org/2000/svg">
<g id="Group 11">
<path id="Vector" d="M0 223.082H192L126 117.738H66L0 223.082Z" fill="#552C2D"/>
<path id="Vector_2" d="M18 223.082H174L114 117.738H78L18 223.082Z" fill="black"/>
<path id="Vector_3" d="M36 223.082H156L102 117.738H90L36 223.082Z" fill="#1A7475"/>
<path id="Vector_4" d="M156 216.885C156 218.529 155.368 220.105 154.243 221.267C153.117 222.429 151.591 223.082 150 223.082H42C40.4087 223.082 38.8826 222.429 37.7574 221.267C36.6321 220.105 36 218.529 36 216.885C36 215.242 36.6321 213.666 37.7574 212.503C38.8826 211.341 40.4087 210.688 42 210.688H150C151.591 210.688 153.117 211.341 154.243 212.503C155.368 213.666 156 215.242 156 216.885ZM144 192.098C144 193.742 143.368 195.318 142.243 196.48C141.117 197.642 139.591 198.295 138 198.295H54C52.4087 198.295 50.8826 197.642 49.7574 196.48C48.6321 195.318 48 193.742 48 192.098C48 190.455 48.6321 188.879 49.7574 187.717C50.8826 186.554 52.4087 185.902 54 185.902H138C139.591 185.902 141.117 186.554 142.243 187.717C143.368 188.879 144 190.455 144 192.098Z" fill="#F5DFBD"/>
<path id="Vector_5" d="M150.457 156.777L126.001 117.738H66.0009L41.5449 156.777C52.8789 172.374 70.3329 185.896 96.0009 185.896C121.663 185.896 139.129 172.368 150.457 156.777Z" fill="#58595B"/>
<g id="Vector_6" filter="url(#filter0_d_96_920)">
<path d="M96 0C42 0 24 18.5902 24 55.7705V105.344C24 117.732 42 173.508 96 173.508C150 173.508 168 117.732 168 105.344V55.7705C168 18.5902 150 0 96 0Z" fill="#1D9594"/>
<path d="M28.5 55.7705C28.5 37.8549 32.8241 25.5023 42.6163 17.4117C52.6375 9.13187 69.3216 4.5 96 4.5C122.678 4.5 139.363 9.13187 149.384 17.4117C159.176 25.5023 163.5 37.8549 163.5 55.7705V105.344C163.5 107.688 162.566 112.931 160.114 119.685C157.703 126.324 153.95 134.072 148.609 141.427C137.966 156.084 121.195 169.008 96 169.008C70.8054 169.008 54.0344 156.084 43.3912 141.427C38.0499 134.072 34.2968 126.324 31.886 119.685C29.4336 112.931 28.5 107.688 28.5 105.344V55.7705Z" stroke="#BDBDBD" stroke-width="9"/>
</g>
<path id="Vector_7" d="M36 68.1637C36 12.3933 62.862 6.19653 96 6.19653C129.138 6.19653 156 12.3933 156 68.1637C156 105.344 129.138 136.328 96 136.328C62.862 136.321 36 105.344 36 68.1637Z" fill="#1A7475"/>
<path id="Vector_8" d="M95.9975 136.322C105.85 136.322 115.108 133.533 123.316 128.712C118.618 122.255 108.178 117.738 95.9975 117.738C83.8175 117.738 73.3835 122.255 68.6855 128.718C76.8815 133.533 86.1515 136.322 95.9975 136.322Z" fill="#F5DFBD"/>
<path id="Vector_9" d="M104.762 58.3493V33.8609C111.131 33.8828 118.554 34.016 124.674 34.5918C128.256 34.9289 131.204 35.4023 133.189 36.0224C133.964 36.2645 134.465 36.491 134.762 36.6631V46.3617C134.762 46.3588 134.761 46.3611 134.759 46.3685C134.737 46.4522 134.542 47.1959 133.075 48.5138C131.622 49.8188 129.361 51.2804 126.339 52.6927C120.964 55.2052 113.505 57.4103 104.762 58.3493ZM56.7617 46.3679V36.661C57.0581 36.4889 57.5588 36.2621 58.3343 36.0197C60.3191 35.3994 63.2671 34.9262 66.8494 34.5895C72.9693 34.0143 80.3918 33.8824 86.7617 33.8608V58.3555C78.0185 57.4165 70.5598 55.2114 65.184 52.6989C62.1622 51.2866 59.9013 49.825 58.4486 48.52C56.9815 47.202 56.7863 46.4584 56.7643 46.3746C56.7623 46.3673 56.7617 46.365 56.7617 46.3679Z" fill="#BAE2FD" stroke="#BAE2FD" stroke-width="6"/>
<path id="Vector_10" d="M24 61.9673C24 61.9673 24 80.5574 48 117.738C48 117.738 24 105.344 24 80.5574V61.9673ZM168 61.9673C168 61.9673 168 80.5574 144 117.738C144 117.738 168 105.344 168 80.5574V61.9673Z" fill="#F5DFBD"/>
</g>
<defs>
<filter id="filter0_d_96_920" x="20" y="0" width="152" height="181.508" filterUnits="userSpaceOnUse" color-interpolation-filters="sRGB">
<feFlood flood-opacity="0" result="BackgroundImageFix"/>
<feColorMatrix in="SourceAlpha" type="matrix" values="0 0 0 0 0 0 0 0 0 0 0 0 0 0 0 0 0 0 127 0" result="hardAlpha"/>
<feOffset dy="4"/>
<feGaussianBlur stdDeviation="2"/>
<feComposite in2="hardAlpha" operator="out"/>
<feColorMatrix type="matrix" values="0 0 0 0 0 0 0 0 0 0 0 0 0 0 0 0 0 0 0.25 0"/>
<feBlend mode="normal" in2="BackgroundImageFix" result="effect1_dropShadow_96_920"/>
<feBlend mode="normal" in="SourceGraphic" in2="effect1_dropShadow_96_920" result="shape"/>
</filter>
</defs>
</svg>
