<svg width="81" height="116" viewBox="0 0 81 116" fill="none" xmlns="http://www.w3.org/2000/svg">
<g id="Group 7">
<path id="Vector" d="M71.2451 3.84847H55.8512C55.8512 2.82779 55.4458 1.84892 54.7241 1.12719C54.0023 0.405463 53.0234 0 52.0028 0H28.9119C27.8913 0 26.9124 0.405463 26.1907 1.12719C25.4689 1.84892 25.0635 2.82779 25.0635 3.84847H9.6696C5.82113 3.84847 1.97266 7.69694 1.97266 11.5454V80.8179C1.97266 86.5713 40.4574 100.06 40.4574 100.06C40.4574 100.06 78.9421 86.4126 78.9421 80.8179V11.5454C78.9421 7.69694 75.0936 3.84847 71.2451 3.84847ZM40.4574 80.8179C38.1739 80.8179 35.9417 80.1408 34.0431 78.8721C32.1444 77.6035 30.6646 75.8004 29.7908 73.6907C28.9169 71.5811 28.6883 69.2597 29.1338 67.0201C29.5793 64.7805 30.6789 62.7233 32.2935 61.1086C33.9082 59.494 35.9654 58.3944 38.205 57.9489C40.4445 57.5034 42.7659 57.7321 44.8756 58.6059C46.9852 59.4797 48.7884 60.9596 50.057 62.8582C51.3256 64.7568 52.0028 66.989 52.0028 69.2725C52.0028 72.3345 50.7864 75.2711 48.6212 77.4363C46.456 79.6015 43.5194 80.8179 40.4574 80.8179ZM67.3967 44.2574C67.3967 44.7677 67.1939 45.2572 66.8331 45.618C66.4722 45.9789 65.9827 46.1816 65.4724 46.1816H15.4423C14.932 46.1816 14.4425 45.9789 14.0817 45.618C13.7208 45.2572 13.5181 44.7677 13.5181 44.2574V25.0151C13.5181 24.5047 13.7208 24.0153 14.0817 23.6544C14.4425 23.2936 14.932 23.0908 15.4423 23.0908H65.4724C65.9827 23.0908 66.4722 23.2936 66.8331 23.6544C67.1939 24.0153 67.3967 24.5047 67.3967 25.0151V44.2574Z" fill="#552C2D"/>
<path id="Vector_2" d="M54.4086 100.06L58.0935 103.909H22.7982L26.5072 100.06L18.8102 96.9333L0.380859 115.454H11.2528L15.1013 111.606H65.7904L69.6389 115.454H80.5349L62.1681 96.7529L54.4086 100.06Z" fill="#552C2D"/>
</g>
</svg>
