<svg width="25" height="25" viewBox="0 0 25 25" fill="none" xmlns="http://www.w3.org/2000/svg">
<path id="Vector" d="M22.2642 15.0605L24.8248 19.3412C24.9305 19.5174 24.9902 19.7158 24.9989 19.9192C25.0076 20.1226 24.9649 20.325 24.8746 20.509C24.7842 20.693 24.649 20.853 24.4803 20.9754C24.3117 21.0977 24.1148 21.1787 23.9066 21.2114L23.7594 21.2252L23.6135 21.224L19.7936 20.9852L18.0965 24.2981C18.0046 24.4777 17.8695 24.6335 17.7026 24.7526C17.5356 24.8716 17.3416 24.9503 17.1367 24.9823C16.9317 25.0143 16.7219 24.9985 16.5245 24.9364C16.3272 24.8742 16.1481 24.7674 16.0022 24.6249L15.8955 24.5068L15.8017 24.3685L13.2385 20.0865C15.0427 19.9771 16.7962 19.4665 18.362 18.5946C19.9277 17.7227 21.2633 16.5131 22.2642 15.0605ZM11.759 20.0865L9.19845 24.3698C9.09489 24.5435 8.94978 24.6909 8.7752 24.7995C8.60063 24.9081 8.40167 24.9748 8.19493 24.9942C7.98818 25.0135 7.77965 24.9848 7.58673 24.9105C7.39381 24.8362 7.22211 24.7185 7.08594 24.5671L6.98696 24.4414L6.9036 24.2981L5.20526 20.9864L1.38789 21.2252C1.17752 21.2386 0.966946 21.2024 0.774241 21.1199C0.581536 21.0374 0.412465 20.911 0.28155 20.7516C0.150636 20.5921 0.0617908 20.4044 0.0226473 20.2045C-0.0164962 20.0046 -0.0047685 19.7985 0.0568233 19.6039L0.10892 19.4694L0.174041 19.3437L2.73719 15.0592C3.73746 16.5119 5.07227 17.7216 6.63732 18.5939C8.20237 19.4663 9.95525 19.9763 11.759 20.0865ZM12.5014 0L12.8139 0.00502722C15.1764 0.0832366 17.415 1.04387 19.0576 2.68428C20.7002 4.3247 21.6183 6.51665 21.6182 8.79775L21.6143 9.04032L21.6052 9.28163L21.5818 9.58955L21.5479 9.8937L21.5167 10.1174C21.4308 10.6599 21.2926 11.1934 21.1038 11.7111L20.9527 12.0982L20.7534 12.5355C20.0161 14.0513 18.8459 15.3325 17.3803 16.2288C15.9147 17.1251 14.2145 17.5992 12.4793 17.5955C10.7442 17.5918 9.04617 17.1104 7.58466 16.2079C6.12315 15.3054 4.95884 14.0192 4.22845 12.5004L4.05913 12.1271L3.99141 11.9599L3.88722 11.6872L3.76349 11.3177C3.71932 11.1746 3.67893 11.0304 3.64236 10.8853L3.56422 10.5447L3.5004 10.2041L3.47435 10.0294L3.42356 9.62349L3.3923 9.16475L3.38449 8.79775C3.38445 6.51665 4.30255 4.3247 5.94512 2.68428C7.5877 1.04387 9.82633 0.0832366 12.1888 0.00502722L12.5014 0Z" fill="#552C2D"/>
</svg>
