<svg width="131" height="131" viewBox="0 0 131 131" fill="none" xmlns="http://www.w3.org/2000/svg">
<g id="mingcute:sad-line" clip-path="url(#clip0_105_1149)">
<g id="Group">
<path id="Vector" fill-rule="evenodd" clip-rule="evenodd" d="M65.5013 10.9166C95.6477 10.9166 120.085 35.3536 120.085 65.5C120.085 95.6463 95.6477 120.083 65.5013 120.083C35.3549 120.083 10.918 95.6463 10.918 65.5C10.918 35.3536 35.3549 10.9166 65.5013 10.9166ZM65.5013 21.8333C53.9202 21.8333 42.8134 26.4339 34.6243 34.623C26.4352 42.812 21.8346 53.9188 21.8346 65.5C21.8346 77.0811 26.4352 88.1879 34.6243 96.377C42.8134 104.566 53.9202 109.167 65.5013 109.167C77.0824 109.167 88.1892 104.566 96.3783 96.377C104.567 88.1879 109.168 77.0811 109.168 65.5C109.168 53.9188 104.567 42.812 96.3783 34.623C88.1892 26.4339 77.0824 21.8333 65.5013 21.8333ZM65.5013 70.9583C72.417 70.9583 78.7487 73.5401 83.5575 77.7812C84.6432 78.7395 85.3038 80.0899 85.3938 81.5353C85.4839 82.9807 84.9961 84.4026 84.0378 85.4884C83.0795 86.5741 81.7291 87.2347 80.2837 87.3247C78.8383 87.4148 77.4164 86.927 76.3306 85.9687C73.3437 83.3244 69.4905 81.8678 65.5013 81.875C61.3475 81.875 57.5594 83.4142 54.672 85.9687C54.1344 86.4429 53.5086 86.8065 52.8305 87.0388C52.1524 87.2712 51.4351 87.3677 50.7197 87.3228C50.0043 87.278 49.3047 87.0926 48.6609 86.7774C48.0171 86.4622 47.4417 86.0232 46.9675 85.4856C46.4934 84.948 46.1297 84.3223 45.8974 83.6442C45.6651 82.9661 45.5686 82.2488 45.6134 81.5334C45.6583 80.818 45.8436 80.1184 46.1588 79.4746C46.474 78.8308 46.913 78.2554 47.4506 77.7812C52.4319 73.378 58.8529 70.951 65.5013 70.9583ZM46.3971 43.6666C48.5686 43.6666 50.6511 44.5292 52.1866 46.0647C53.722 47.6001 54.5846 49.6827 54.5846 51.8541C54.5846 54.0256 53.722 56.1081 52.1866 57.6436C50.6511 59.179 48.5686 60.0416 46.3971 60.0416C44.2257 60.0416 42.1432 59.179 40.6077 57.6436C39.0722 56.1081 38.2096 54.0256 38.2096 51.8541C38.2096 49.6827 39.0722 47.6001 40.6077 46.0647C42.1432 44.5292 44.2257 43.6666 46.3971 43.6666ZM84.6055 43.6666C86.7769 43.6666 88.8594 44.5292 90.3949 46.0647C91.9304 47.6001 92.793 49.6827 92.793 51.8541C92.793 54.0256 91.9304 56.1081 90.3949 57.6436C88.8594 59.179 86.7769 60.0416 84.6055 60.0416C82.434 60.0416 80.3515 59.179 78.816 57.6436C77.2806 56.1081 76.418 54.0256 76.418 51.8541C76.418 49.6827 77.2806 47.6001 78.816 46.0647C80.3515 44.5292 82.434 43.6666 84.6055 43.6666Z" fill="#F5DFBD"/>
</g>
</g>
<defs>
<clipPath id="clip0_105_1149">
<rect width="131" height="131" fill="white"/>
</clipPath>
</defs>
</svg>
