<svg width="35" height="35" viewBox="0 0 35 35" fill="none" xmlns="http://www.w3.org/2000/svg">
<g id="mingcute:exit-fill" clip-path="url(#clip0_105_1028)">
<g id="Group">
<path id="Vector" d="M17.5013 3.64587C18.0815 3.64587 18.6379 3.87634 19.0481 4.28658C19.4583 4.69681 19.6888 5.25321 19.6888 5.83337C19.6888 6.41354 19.4583 6.96993 19.0481 7.38017C18.6379 7.79041 18.0815 8.02087 17.5013 8.02087H10.2096C10.0162 8.02087 9.83078 8.0977 9.69404 8.23444C9.55729 8.37119 9.48047 8.55665 9.48047 8.75004V26.25C9.48047 26.4434 9.55729 26.6289 9.69404 26.7656C9.83078 26.9024 10.0162 26.9792 10.2096 26.9792H16.7721C17.3523 26.9792 17.9087 27.2097 18.3189 27.6199C18.7292 28.0301 18.9596 28.5865 18.9596 29.1667C18.9596 29.7469 18.7292 30.3033 18.3189 30.7135C17.9087 31.1237 17.3523 31.3542 16.7721 31.3542H10.2096C8.85593 31.3542 7.55766 30.8165 6.60044 29.8592C5.64323 28.902 5.10547 27.6038 5.10547 26.25V8.75004C5.10547 7.39633 5.64323 6.09807 6.60044 5.14085C7.55766 4.18363 8.85593 3.64587 10.2096 3.64587H17.5013ZM26.3388 11.8271L30.4644 15.9542C30.8741 16.3644 31.1042 16.9204 31.1042 17.5C31.1042 18.0797 30.8741 18.6357 30.4644 19.0459L26.3403 23.173C25.9299 23.5833 25.3733 23.8139 24.793 23.8139C24.2126 23.8139 23.656 23.5833 23.2457 23.173C22.8353 22.7626 22.6048 22.206 22.6048 21.6257C22.6048 21.0453 22.8353 20.4887 23.2457 20.0784L23.6365 19.6875H17.5013C16.9211 19.6875 16.3647 19.4571 15.9545 19.0468C15.5443 18.6366 15.3138 18.0802 15.3138 17.5C15.3138 16.9199 15.5443 16.3635 15.9545 15.9532C16.3647 15.543 16.9211 15.3125 17.5013 15.3125H23.6365L23.2457 14.9217C23.0426 14.7185 22.8815 14.4773 22.7716 14.2119C22.6617 13.9464 22.6052 13.6619 22.6053 13.3746C22.6054 13.0873 22.662 12.8029 22.772 12.5375C22.882 12.2721 23.0432 12.031 23.2464 11.8279C23.4496 11.6248 23.6908 11.4637 23.9563 11.3538C24.2217 11.2439 24.5062 11.1874 24.7935 11.1875C25.0808 11.1875 25.3652 11.2442 25.6306 11.3542C25.896 11.4642 26.1372 11.6254 26.3403 11.8286L26.3388 11.8271Z" fill="#552C2D"/>
</g>
</g>
<defs>
<clipPath id="clip0_105_1028">
<rect width="35" height="35" fill="white"/>
</clipPath>
</defs>
</svg>
