<svg width="120" height="120" viewBox="0 0 120 120" fill="none" xmlns="http://www.w3.org/2000/svg">
<g id="oui:cheer" clip-path="url(#clip0_41_1700)">
<path id="Vector" d="M37.0015 22.9726C38.5249 23.4735 39.9237 24.2943 41.104 25.3801L41.944 26.2426L87.469 78.1051C88.6897 79.4962 89.5484 81.1671 89.9689 82.9696C90.3894 84.772 90.3586 86.6503 89.8794 88.4381C89.4002 90.2258 88.4874 91.8677 87.2217 93.2182C85.9561 94.5686 84.3769 95.586 82.624 96.1801L81.559 96.4801L13.8265 112.208C11.9839 112.636 10.0632 112.592 8.24194 112.081C6.42068 111.57 4.75769 110.608 3.40674 109.284C2.05579 107.96 1.0605 106.317 0.512927 104.506C-0.03465 102.695 -0.116842 100.776 0.273952 98.9251L0.596452 97.7326L22.7965 30.1501C23.7276 27.3157 25.7464 24.9673 28.4089 23.6213C31.0713 22.2752 34.1669 22.0419 37.0015 22.9726ZM30.199 31.8751L29.929 32.4976L7.72145 100.08C7.53116 100.657 7.48404 101.272 7.58415 101.872C7.68425 102.471 7.92859 103.037 8.2961 103.522C8.66362 104.006 9.1433 104.393 9.69385 104.651C10.2444 104.908 10.8493 105.028 11.4565 105L12.1315 104.903L34.159 99.7951L23.6665 88.4851C23.0344 87.7981 22.6813 86.9001 22.6761 85.9666C22.671 85.0331 23.0142 84.1313 23.6387 83.4374C24.2632 82.7435 25.124 82.3075 26.0529 82.2146C26.9818 82.1217 27.9119 82.3786 28.6615 82.9351L29.164 83.3851L42.574 97.8376L62.329 93.2551L38.344 66.2476C37.7202 65.5481 37.381 64.6403 37.3932 63.7032C37.4053 62.766 37.768 61.8674 38.4097 61.1843C39.0514 60.5012 39.9256 60.0832 40.8601 60.0125C41.7947 59.9419 42.7219 60.2237 43.459 60.8026L43.954 61.2676L70.6465 91.3201L79.864 89.1901C80.2622 89.0951 80.6423 88.9354 80.989 88.7176L81.4915 88.3501C82.1496 87.7713 82.5843 86.9803 82.7199 86.1144C82.8556 85.2485 82.6836 84.3624 82.234 83.6101L81.8364 83.0626L36.3115 31.1926C36.0181 30.8584 35.6676 30.579 35.2765 30.3676L34.6615 30.1051L34.0015 29.9551C33.2477 29.8516 32.4803 29.9798 31.8011 30.3228C31.122 30.6657 30.5632 31.2071 30.199 31.8751ZM117.649 69.6676C118.843 71.8215 119.601 74.1896 119.88 76.6365C120.159 79.0834 119.953 81.5613 119.274 83.9286C118.594 86.2959 117.456 88.5063 115.922 90.4334C114.389 92.3605 112.491 93.9666 110.336 95.1601C109.466 95.6424 108.44 95.7593 107.484 95.4851C106.527 95.2108 105.719 94.5678 105.236 93.6976C104.754 92.8273 104.637 91.8011 104.911 90.8447C105.186 89.8883 105.829 89.0799 106.699 88.5976C109.285 87.1391 111.19 84.7174 111.998 81.8604C112.806 79.0035 112.452 75.9429 111.013 73.3459C109.574 70.7489 107.166 68.8261 104.316 67.9965C101.465 67.167 98.4017 67.4981 95.794 68.9176C94.9237 69.3999 93.8975 69.5168 92.9411 69.2426C91.9846 68.9683 91.1763 68.3253 90.694 67.4551C90.2116 66.5848 90.0947 65.5586 90.369 64.6022C90.6432 63.6458 91.2862 62.8374 92.1565 62.3551C94.3104 61.161 96.6784 60.4029 99.1254 60.1242C101.572 59.8454 104.05 60.0515 106.418 60.7305C108.785 61.4096 110.995 62.5484 112.922 64.0818C114.849 65.6152 116.456 67.5133 117.649 69.6676ZM79.924 23.1226C80.7572 23.3985 81.4672 23.9579 81.9304 24.7034C82.3936 25.449 82.5807 26.3334 82.459 27.2026L82.309 27.8626L77.2315 43.1251L92.7415 37.7176C93.5704 37.4274 94.4749 37.4373 95.2973 37.7457C96.1197 38.0541 96.8077 38.6414 97.2414 39.4051L97.5115 40.0201C97.8017 40.849 97.7917 41.7536 97.4833 42.5759C97.1749 43.3983 96.5877 44.0864 95.824 44.5201L95.209 44.7976L72.5215 52.7101C71.9092 52.9243 71.2519 52.9761 70.6136 52.8603C69.9754 52.7445 69.3781 52.4652 68.8801 52.0495C68.3821 51.6339 68.0005 51.0962 67.7724 50.489C67.5443 49.8818 67.4777 49.2258 67.5789 48.5851L67.729 47.9851L75.1915 25.4851C75.5063 24.5427 76.1824 23.7638 77.0711 23.3194C77.9598 22.875 78.9886 22.8016 79.9314 23.1151M108.746 30.0001C109.741 30.0001 110.695 30.3952 111.398 31.0984C112.101 31.8017 112.496 32.7555 112.496 33.7501C112.496 34.7446 112.101 35.6985 111.398 36.4017C110.695 37.105 109.741 37.5001 108.746 37.5001C107.752 37.5001 106.798 37.105 106.095 36.4017C105.392 35.6985 104.996 34.7446 104.996 33.7501C104.996 32.7555 105.392 31.8017 106.095 31.0984C106.798 30.3952 107.752 30.0001 108.746 30.0001ZM58.9615 3.02258C61.0272 4.36371 62.8085 6.09867 64.2036 8.12837C65.5986 10.1581 66.5801 12.4427 67.0921 14.8518C67.604 17.261 67.6362 19.7473 67.187 22.1689C66.7378 24.5905 65.8159 26.8999 64.474 28.9651C64.2056 29.3783 63.8584 29.7345 63.4523 30.0135C63.0463 30.2925 62.5892 30.4888 62.1073 30.5912C61.6254 30.6936 61.128 30.7 60.6435 30.6102C60.1591 30.5204 59.6971 30.336 59.284 30.0676C58.8708 29.7992 58.5145 29.4521 58.2355 29.046C57.9565 28.6399 57.7602 28.1829 57.6578 27.7009C57.4511 26.7276 57.6394 25.712 58.1815 24.8776C58.9861 23.6386 59.5389 22.2532 59.8081 20.8005C60.0774 19.3479 60.0579 17.8564 59.7508 16.4113C59.4437 14.9662 58.8549 13.5957 58.0181 12.3782C57.1814 11.1606 56.113 10.1198 54.874 9.31508C53.6349 8.51041 52.2495 7.95766 50.7969 7.68839C49.3443 7.41912 47.8528 7.4386 46.4077 7.74573C44.9626 8.05286 43.5921 8.64162 42.3745 9.47839C41.157 10.3152 40.1161 11.3836 39.3115 12.6226C39.0431 13.0358 38.6959 13.392 38.2898 13.671C37.8838 13.95 37.4267 14.1463 36.9448 14.2487C35.9715 14.4555 34.9559 14.2671 34.1215 13.7251C33.287 13.183 32.7021 12.3317 32.4953 11.3584C32.2886 10.3851 32.4769 9.36952 33.019 8.53508C34.3601 6.46934 36.095 4.68806 38.1247 3.29299C40.1544 1.89791 42.4391 0.916387 44.8482 0.404476C47.2573 -0.107435 49.7437 -0.139701 52.1653 0.309521C54.5869 0.758744 56.8962 1.68065 58.9615 3.02258ZM101.246 15.0001C102.241 15.0001 103.195 15.3952 103.898 16.0984C104.601 16.8017 104.996 17.7555 104.996 18.7501C104.996 19.7446 104.601 20.6985 103.898 21.4017C103.195 22.105 102.241 22.5001 101.246 22.5001C100.252 22.5001 99.2981 22.105 98.5948 21.4017C97.8915 20.6985 97.4965 19.7446 97.4965 18.7501C97.4965 17.7555 97.8915 16.8017 98.5948 16.0984C99.2981 15.3952 100.252 15.0001 101.246 15.0001ZM78.7465 7.50008C79.741 7.50008 80.6948 7.89517 81.3981 8.59843C82.1014 9.30169 82.4965 10.2555 82.4965 11.2501C82.4965 12.2446 82.1014 13.1985 81.3981 13.9017C80.6948 14.605 79.741 15.0001 78.7465 15.0001C77.7519 15.0001 76.7981 14.605 76.0948 13.9017C75.3915 13.1985 74.9965 12.2446 74.9965 11.2501C74.9965 10.2555 75.3915 9.30169 76.0948 8.59843C76.7981 7.89517 77.7519 7.50008 78.7465 7.50008ZM108.746 8.51066e-05C109.741 8.51066e-05 110.695 0.395173 111.398 1.09843C112.101 1.8017 112.496 2.75552 112.496 3.75008C112.496 4.74465 112.101 5.69847 111.398 6.40174C110.695 7.105 109.741 7.50008 108.746 7.50008C107.752 7.50008 106.798 7.105 106.095 6.40174C105.392 5.69847 104.996 4.74465 104.996 3.75008C104.996 2.75552 105.392 1.8017 106.095 1.09843C106.798 0.395173 107.752 8.51066e-05 108.746 8.51066e-05Z" fill="#F5DFBD"/>
</g>
<defs>
<clipPath id="clip0_41_1700">
<rect width="120" height="120" fill="white"/>
</clipPath>
</defs>
</svg>
