<svg width="244" height="236" viewBox="0 0 244 236" fill="none" xmlns="http://www.w3.org/2000/svg">
<g id="noto:train">
<path id="Vector" d="M55.8523 194.553C55.8523 194.553 55.1469 196.595 55.1279 198.195C55.1088 199.796 55.3566 203.052 58.3304 203.052C62.181 203.052 105.72 202.923 126.708 203.052C147.695 203.181 186.335 202.794 189.042 202.647C191.749 202.518 191.005 196.724 190.834 194.737L55.8523 194.553Z" fill="black"/>
<path id="Vector_2" d="M194.876 213.427L200.385 217.088C200.385 217.088 203.95 220.086 204.427 221.889C204.903 223.692 203.798 227.113 202.215 227.831L119.599 228.107L42.548 227.886C41.347 227.592 39.8983 226.47 39.5361 224.409C39.1739 222.349 40.3558 220.049 41.0992 218.615C41.8427 217.18 57.1689 213.445 57.1689 213.445L194.876 213.427Z" fill="black"/>
<path id="Vector_3" d="M49.3534 209.601C47.8666 209.619 46.78 211.33 45.8841 212.452C43.5584 215.34 42.0906 217.161 41.1184 218.615C39.7841 220.62 42.4528 222.349 44.8356 222.349C47.2184 222.349 203.798 222.57 204.179 221.595C204.694 220.307 201.644 215.91 199.128 211.863C198.251 210.447 196.344 208.515 194.629 208.534L49.3534 209.601Z" fill="#F5DFBD"/>
<path id="Vector_4" d="M61.4193 185.465L56.12 193.799C55.205 195.234 56.2725 197.073 58.0262 197.073L188.642 197C190.377 197 191.445 195.178 190.568 193.743L185.44 185.447H61.4193V185.465Z" fill="#F5DFBD"/>
<path id="Vector_5" d="M90.0702 186.808L74.5342 227.996H65.1173L59.7227 218.081L76.9552 182.301C76.9552 182.283 90.928 184.141 90.0702 186.808Z" fill="#88857C"/>
<path id="Vector_6" d="M54.9199 228.052C55.1487 227.279 71.0277 195.05 71.0277 195.05C72.019 193.045 80.3874 193.946 79.034 197.735C77.6805 201.525 68.0921 227.978 68.0921 227.978L54.9199 228.052Z" fill="#C8C9C6"/>
<path id="Vector_7" d="M152.481 186.808L168.093 227.941L177.415 227.923L182.829 218.081L165.596 182.301C165.615 182.283 151.623 184.141 152.481 186.808Z" fill="#88857C"/>
<path id="Vector_8" d="M187.612 227.886C187.384 227.113 171.466 194.939 171.466 194.939C170.475 192.934 162.107 193.836 163.46 197.625L174.44 227.923L187.612 227.886Z" fill="#C8C9C6"/>
<path id="Vector_9" d="M191.007 180.425C191.273 183.571 189.291 186.385 186.508 186.827C177.263 188.243 155.169 190.947 120.666 190.947C86.4106 190.947 64.8128 188.28 55.6819 186.845C52.8606 186.404 50.8972 183.534 51.2022 180.352L51.1641 148.821H191.045L191.007 180.425Z" fill="#605E5E"/>
<path id="Vector_10" d="M51.1641 148.821V159.969C51.1641 159.969 84.2947 161.625 121.085 161.625C157.876 161.625 191.026 159.712 191.026 159.712V148.821H51.1641Z" fill="black"/>
<path id="Vector_11" d="M120.818 155.977L121.085 111.736L49.2191 98.5642L47.9609 141.647V151.93C47.9609 153.567 49.2762 154.91 50.9537 155.002C56.9966 155.352 74.3053 155.977 120.818 155.977Z" fill="#E0E0E0"/>
<path id="Vector_12" d="M184.448 14.7351C175.222 11.1111 156.807 7.3584 121.103 7.3584C85.3994 7.3584 66.9659 11.1111 57.7397 14.7351C53.9463 16.2251 51.4681 22.0014 51.4681 26.0116L49.2188 98.5459L69.2916 127.262L120.589 151.194C184.601 151.194 194.608 150.661 194.608 150.661L190.701 26.0116C190.72 22.0014 188.242 16.2251 184.448 14.7351Z" fill="#F5DFBD"/>
<path id="Vector_13" d="M180.121 17.3287C171.486 13.9439 154.501 10.5591 121.104 10.5591C87.7061 10.5591 70.7023 13.9439 62.0861 17.3287C58.5405 18.7268 56.2148 22.9026 56.2148 26.6553L56.5198 71.5224C56.577 81.4929 63.3252 90.2861 73.1805 93.2846L122.476 109.381L169.789 93.4317C179.664 90.3597 186.335 81.4561 186.278 71.4489L185.973 26.8393C185.973 23.0866 183.667 18.7268 180.121 17.3287Z" fill="#F05537"/>
<path id="Vector_14" d="M178.253 57.9098H126.289L126.975 27.2441H174.384L178.253 57.9098Z" fill="#BAE2FD"/>
<path id="Vector_15" d="M174.688 23.8225H127.832C126.079 23.8225 124.687 25.6437 124.802 27.796L125.678 57.5786C125.774 59.547 127.108 61.0738 128.709 61.0738H177.033C179.358 61.0738 181.074 58.4248 180.578 55.6287L177.624 26.7474C177.338 25.0366 176.099 23.8225 174.688 23.8225ZM131.969 28.9181H170.952C172.343 28.9181 173.544 30.0771 173.887 31.7327L175.698 51.3057C176.194 53.6787 174.745 55.9782 172.763 55.9782H132.484C130.901 55.9782 129.586 54.4698 129.472 52.5198L128.976 32.9468C128.824 30.7761 130.215 28.9181 131.969 28.9181Z" fill="#F05537"/>
<path id="Vector_16" d="M65.7461 57.9098H117.71L117.024 27.2441H69.6158L65.7461 57.9098Z" fill="#BAE2FD"/>
<path id="Vector_17" d="M66.3568 26.7474L63.4021 55.6287C62.9065 58.4248 64.6221 61.0738 66.9478 61.0738H115.271C116.872 61.0738 118.188 59.547 118.302 57.5786L119.179 27.796C119.293 25.6437 117.902 23.8225 116.148 23.8225H69.3115C67.9009 23.8225 66.6618 25.0366 66.3568 26.7474ZM115.042 32.9468L114.547 52.5198C114.432 54.4698 113.117 55.9782 111.535 55.9782H71.2178C69.2353 55.9782 67.7865 53.6787 68.2821 51.3057L70.0931 31.7327C70.4362 30.0771 71.6371 28.9181 73.0287 28.9181H112.012C113.784 28.9181 115.176 30.7761 115.042 32.9468Z" fill="#F05537"/>
<path id="Vector_18" d="M160.145 80.7388C157.952 76.0111 154.197 74.2268 150.251 75.1649C146.305 76.1031 144.266 79.8558 144.856 83.7373C145.638 89.0169 150.69 94.2229 157.095 91.3164C161.25 89.44 162.318 85.4113 160.145 80.7388Z" fill="black"/>
<path id="Vector_19" d="M151.986 87.8028C155.281 87.8028 157.953 85.2249 157.953 82.045C157.953 78.865 155.281 76.2871 151.986 76.2871C148.691 76.2871 146.02 78.865 146.02 82.045C146.02 85.2249 148.691 87.8028 151.986 87.8028Z" fill="#F5DFBD"/>
<path id="Vector_20" d="M83.8566 80.7388C86.0488 76.0111 89.8041 74.2268 93.75 75.1649C97.696 76.1031 99.7356 79.8558 99.1447 83.7373C98.3631 89.0169 93.3116 94.2229 86.9066 91.3164C82.751 89.44 81.6835 85.4113 83.8566 80.7388Z" fill="black"/>
<path id="Vector_21" d="M92.0154 87.8028C95.3106 87.8028 97.982 85.2249 97.982 82.045C97.982 78.865 95.3106 76.2871 92.0154 76.2871C88.7202 76.2871 86.0488 78.865 86.0488 82.045C86.0488 85.2249 88.7202 87.8028 92.0154 87.8028Z" fill="#F5DFBD"/>
<path id="Vector_22" d="M121.104 111.717L49.2381 98.5459L47.9609 141.647V151.93C47.9609 153.567 49.2762 154.91 50.9537 155.002C56.9966 155.352 74.3053 155.977 120.818 155.977H121.085C121.085 155.977 125.183 147.957 125.183 134.454C125.183 120.952 121.104 111.717 121.104 111.717Z" fill="#E0E0E0"/>
<path id="Vector_23" d="M121.104 111.717L192.969 98.5459L194.227 141.647V151.93C194.227 153.567 192.912 154.91 191.234 155.002C185.192 155.352 167.883 155.977 121.37 155.977H121.104V111.717Z" fill="#BDBDBD"/>
<path id="Vector_24" opacity="0.2" d="M47.9609 151.93C47.9609 153.567 49.2762 154.91 50.9537 155.002C56.9966 155.352 74.3053 155.977 120.818 155.977H121.352C167.864 155.977 185.173 155.352 191.216 155.002C192.893 154.91 194.208 153.567 194.208 151.93V141.739H47.9609V151.93Z" fill="#424242"/>
<path id="Vector_25" d="M163.48 132.651C169.671 132.651 174.689 127.809 174.689 121.835C174.689 115.861 169.671 111.018 163.48 111.018C157.29 111.018 152.271 115.861 152.271 121.835C152.271 127.809 157.29 132.651 163.48 132.651Z" fill="#757575"/>
<path id="Vector_26" d="M163.479 130.867C168.027 130.867 171.714 127.309 171.714 122.92C171.714 118.531 168.027 114.973 163.479 114.973C158.931 114.973 155.244 118.531 155.244 122.92C155.244 127.309 158.931 130.867 163.479 130.867Z" fill="#F5DFBD"/>
<path id="Vector_27" d="M80.5193 132.651C86.7097 132.651 91.728 127.809 91.728 121.835C91.728 115.861 86.7097 111.018 80.5193 111.018C74.3289 111.018 69.3105 115.861 69.3105 121.835C69.3105 127.809 74.3289 132.651 80.5193 132.651Z" fill="#9E9E9E"/>
<path id="Vector_28" d="M80.5202 130.867C85.0682 130.867 88.7552 127.309 88.7552 122.92C88.7552 118.531 85.0682 114.973 80.5202 114.973C75.9721 114.973 72.2852 118.531 72.2852 122.92C72.2852 127.309 75.9721 130.867 80.5202 130.867Z" fill="#F5DFBD"/>
<path id="Vector_29" d="M109.705 55.9597H95.7324L77.623 28.918H91.6149L109.705 55.9597ZM166.378 55.9597H152.386L134.296 28.918H148.269L166.378 55.9597Z" fill="white"/>
</g>
</svg>
