<svg width="138" height="138" viewBox="0 0 138 138" fill="none" xmlns="http://www.w3.org/2000/svg">
<rect width="138" height="138" rx="68" fill="#F05537"/>
<path d="M94.3125 64.1974C93.5567 63.4006 95.3518 63.4006 95.3518 63.4006C97.2885 63.4006 97.4775 58.6616 97.4775 58.6616C97.4775 58.6616 97.4775 52.4547 97.4775 47.8834C97.4775 43.3541 91.8561 44.067 91.8561 44.067C91.8561 44.067 76.5982 44.067 74.8032 44.067C73.0081 44.067 73.1498 41.0055 73.1498 41.0055C73.1498 41.0055 73.1498 39.4119 73.1498 37.3988C73.1498 35.3858 75.6535 34.6729 75.6535 34.6729C75.6535 34.6729 76.6455 34.1696 76.6455 33.3308C76.6455 32.4921 75.6062 32.2404 75.6062 32.2404H70.1738V16.3458H66.3948V32.1985H60.9624C60.9624 32.1985 59.9231 32.4501 59.9231 33.2889C59.9231 34.1277 60.9151 34.6309 60.9151 34.6309C60.9151 34.6309 63.4188 35.3019 63.4188 37.3569C63.4188 39.4119 63.4188 40.9636 63.4188 40.9636C63.4188 40.9636 63.5605 44.0251 61.7654 44.0251C59.9704 44.0251 44.7125 44.0251 44.7125 44.0251C44.7125 44.0251 39.0911 43.2702 39.0911 47.8415C39.0911 52.3708 39.0911 58.6196 39.0911 58.6196C39.0911 58.6196 39.2801 63.3586 41.2168 63.3586C41.2168 63.3586 43.0119 63.3586 42.2561 64.1555C41.5003 64.9523 37.9102 65.0362 37.9102 74.4723C37.9102 83.9084 44.2873 86.7183 44.2873 86.7183C44.2873 86.7183 45.9406 87.6828 51.4675 87.6828C56.9944 87.6828 68.2843 87.6828 68.2843 87.6828C68.2843 87.6828 79.5742 87.6828 85.1011 87.6828C90.628 87.6828 92.2813 86.7183 92.2813 86.7183C92.2813 86.7183 98.6585 83.9503 98.6585 74.4723C98.6585 64.9942 95.0684 64.9942 94.3125 64.1974ZM89.1163 77.8693C87.8409 79.0016 87.0379 80.134 85.2428 80.134C83.4478 80.134 76.7872 78.9597 74.6142 78.7081C72.4413 78.4145 68.2843 78.4145 68.2843 78.4145C68.2843 78.4145 64.1273 78.4145 61.9544 78.7081C59.7814 79.0016 53.1208 80.134 51.3258 80.134C49.5307 80.134 48.7277 79.0016 47.4523 77.8693C46.1768 76.737 46.1296 74.8497 46.1296 73.5916C46.1296 72.3334 48.3026 69.1881 50.1448 66.5879C51.9871 63.9877 55.0104 64.2393 55.0104 64.2393H68.2371H81.4638C81.4638 64.2393 84.487 63.9458 86.3293 66.5879C88.1716 69.1881 90.3445 72.3754 90.3445 73.5916C90.3445 74.8078 90.3918 76.737 89.1163 77.8693Z" fill="#F5DFBD"/>
<path d="M50.0269 113.384C49.2526 113.384 48.503 113.28 47.7779 113.071C47.0651 112.85 46.4875 112.512 46.045 112.057L47.2986 109.974L47.3908 109.827L47.5751 109.937C47.5997 110.023 47.6304 110.115 47.6673 110.214C47.7164 110.3 47.8209 110.41 47.9807 110.546C48.2756 110.742 48.5951 110.908 48.9392 111.043C49.2834 111.178 49.6398 111.252 50.0084 111.264C50.2665 111.264 50.4939 111.246 50.6905 111.209C50.8994 111.172 51.0776 111.111 51.2251 111.025C51.3726 110.939 51.4832 110.822 51.5569 110.675C51.643 110.515 51.686 110.324 51.686 110.103C51.686 109.992 51.6675 109.882 51.6307 109.771C51.6061 109.648 51.5569 109.532 51.4832 109.421C51.4095 109.298 51.2927 109.175 51.1329 109.052C50.9855 108.929 50.795 108.794 50.5615 108.647C50.328 108.499 50.033 108.346 49.6766 108.186C48.8901 107.805 48.2633 107.442 47.7963 107.098C47.3416 106.754 47.0098 106.379 46.8009 105.974C46.6042 105.556 46.5059 105.058 46.5059 104.481C46.5059 103.915 46.6718 103.405 47.0036 102.951C47.3477 102.496 47.8086 102.133 48.3862 101.863C48.9638 101.593 49.5967 101.457 50.285 101.457C50.8134 101.457 51.2927 101.513 51.7228 101.623C52.1653 101.734 52.5708 101.9 52.9395 102.121C53.3205 102.342 53.6707 102.625 53.9903 102.969L52.4233 104.665L52.3127 104.794L52.1468 104.647C52.1345 104.548 52.1161 104.456 52.0915 104.37C52.0669 104.272 51.9871 104.149 51.8519 104.001C51.6552 103.829 51.4463 103.719 51.2251 103.669C51.0039 103.608 50.7458 103.577 50.4509 103.577C50.2419 103.577 50.0515 103.602 49.8794 103.651C49.7073 103.688 49.5599 103.749 49.437 103.835C49.3141 103.909 49.2158 103.995 49.142 104.093C49.0806 104.192 49.0499 104.296 49.0499 104.407C49.0499 104.517 49.0621 104.622 49.0867 104.72C49.1113 104.806 49.1605 104.898 49.2342 104.997C49.3079 105.095 49.4185 105.2 49.566 105.31C49.7258 105.421 49.9286 105.55 50.1743 105.697C50.4324 105.832 50.752 105.992 51.1329 106.177C51.7228 106.472 52.2206 106.754 52.6261 107.025C53.0317 107.295 53.3512 107.578 53.5847 107.873C53.8305 108.155 54.0026 108.469 54.1009 108.813C54.2115 109.157 54.2668 109.55 54.2668 109.992C54.2668 110.57 54.1193 111.117 53.8244 111.633C53.5294 112.149 53.0686 112.573 52.4418 112.905C51.815 113.225 51.01 113.384 50.0269 113.384ZM58.562 113.163L55.0226 101.679H57.5665L59.6128 109.274L61.5299 101.679H64.0186L60.5161 113.163H58.562ZM70.9315 110.933H66.2307L66.5441 109.126H70.5628L70.9315 110.933ZM68.6825 106.14L66.8206 113.163H64.2398L67.8898 101.679H69.4567L73.1068 113.163H70.4891L68.6825 106.14ZM73.9547 113.163V101.679H77.7707C78.7293 101.679 79.5158 101.82 80.1303 102.103C80.757 102.385 81.2179 102.785 81.5128 103.301C81.8201 103.817 81.9737 104.419 81.9737 105.107C81.9737 105.525 81.8877 105.943 81.7156 106.361C81.5559 106.766 81.3224 107.141 81.0151 107.485C80.7079 107.817 80.3453 108.081 79.9275 108.278L82.2871 113.163H79.5957L77.402 108.591H76.6093V113.163H73.9547ZM76.6093 106.472H77.8997C78.3298 106.472 78.6678 106.361 78.9136 106.14C79.1717 105.906 79.3007 105.593 79.3007 105.2C79.3007 104.954 79.2454 104.733 79.1348 104.536C79.0242 104.339 78.8644 104.18 78.6555 104.057C78.4466 103.934 78.1947 103.872 77.8997 103.872H76.6093V106.472ZM89.3659 110.933H84.6651L84.9785 109.126H88.9972L89.3659 110.933ZM87.1169 106.14L85.255 113.163H82.6742L86.3242 101.679H87.8912L91.5412 113.163H88.9235L87.1169 106.14Z" fill="#F5DFBD"/>
</svg>
