<svg width="26" height="30" viewBox="0 0 26 30" fill="none" xmlns="http://www.w3.org/2000/svg">
<path id="Vector" d="M10.0046 2.85714H15.7189C16.5046 2.85714 17.1475 2.21429 17.1475 1.42857C17.1475 0.642857 16.5046 0 15.7189 0H10.0046C9.21893 0 8.57608 0.642857 8.57608 1.42857C8.57608 2.21429 9.21893 2.85714 10.0046 2.85714ZM22.9046 9.12857L23.9761 8.05714C24.2402 7.79136 24.3885 7.43186 24.3885 7.05714C24.3885 6.68242 24.2402 6.32292 23.9761 6.05714L23.9618 6.04286C23.696 5.7787 23.3365 5.63044 22.9618 5.63044C22.5871 5.63044 22.2276 5.7787 21.9618 6.04286L20.8904 7.11429C18.6151 5.28332 15.7823 4.28527 12.8618 4.28571C6.00465 4.28571 0.176079 9.94286 0.00465017 16.8C-0.0415495 18.5172 0.256893 20.2262 0.882344 21.826C1.50779 23.4259 2.44757 24.8842 3.64613 26.1147C4.8447 27.3452 6.27775 28.323 7.8606 28.9904C9.44346 29.6577 11.144 30.001 12.8618 30C15.2822 30.0013 17.6538 29.3189 19.7034 28.0314C21.753 26.7438 23.3972 24.9036 24.4467 22.7225C25.4962 20.5414 25.9082 18.1082 25.6354 15.7032C25.3626 13.2982 24.416 11.0192 22.9046 9.12857ZM14.2904 17.1429C14.2904 17.9286 13.6475 18.5714 12.8618 18.5714C12.0761 18.5714 11.4332 17.9286 11.4332 17.1429V11.4286C11.4332 10.6429 12.0761 10 12.8618 10C13.6475 10 14.2904 10.6429 14.2904 11.4286V17.1429Z" fill="#552C2D"/>
</svg>
